<svg width="36" height="44" viewBox="0 0 36 44" fill="none" xmlns="http://www.w3.org/2000/svg">
<path d="M35.129 9.653C34.5705 7.92058 33.7651 6.35068 32.7579 5.03118C31.75 3.70774 30.5617 2.65602 29.2575 1.93322C27.9052 1.18074 26.4547 0.795573 24.9904 0.800088C22.936 0.800088 20.9316 1.55365 19.1897 2.97703C18.773 3.31753 18.3771 3.69152 18.0021 4.099C17.627 3.69152 17.2311 3.31753 16.8144 2.97703C15.0726 1.55365 13.0682 0.800088 11.0138 0.800088C9.53442 0.800088 8.10093 1.17966 6.74661 1.93322C5.43812 2.65886 4.25882 3.70268 3.24621 5.03118C2.23774 6.34919 1.43216 7.91946 0.8751 9.653C0.295867 11.456 0 13.3706 0 15.341C0 17.1997 0.283366 19.1367 0.84593 21.1071C1.31682 22.7537 1.99189 24.4618 2.85449 26.1866C4.22132 28.9162 6.1007 31.763 8.4343 34.6488C12.3014 39.4325 16.131 42.737 16.2935 42.871L17.2811 43.7194C17.7187 44.0934 18.2813 44.0934 18.7188 43.7194L19.7064 42.871C19.8689 42.7314 23.6944 39.4325 27.5657 34.6488C29.8993 31.763 31.7786 28.9162 33.1455 26.1866C34.0081 24.4618 34.6873 22.7537 35.154 21.1071C35.7166 19.1367 36 17.1997 36 15.341C36.0041 13.3706 35.7083 11.456 35.129 9.653ZM18.0021 39.3041C18.0021 39.3041 3.16703 26.5718 3.16703 15.341C3.16703 9.653 6.67993 5.04234 11.0138 5.04234C14.0599 5.04234 16.7019 7.31976 18.0021 10.6466C19.3022 7.31976 21.9442 5.04234 24.9904 5.04234C29.3242 5.04234 32.8371 9.653 32.8371 15.341C32.8371 26.5718 18.0021 39.3041 18.0021 39.3041Z" fill="#FCF7F7"/>
</svg>
